<svg width="202" height="202" viewBox="0 0 202 202" fill="none" xmlns="http://www.w3.org/2000/svg">
<circle cx="101" cy="101" r="101" fill="white"/>
<path d="M81.4258 162.07V138.581L100.216 149.543L81.4258 162.07Z" fill="white"/>
<path d="M81.4258 138.581L81.9297 137.718C81.6204 137.537 81.2382 137.536 80.9277 137.714C80.6172 137.892 80.4258 138.223 80.4258 138.581H81.4258ZM81.4258 162.07H80.4258C80.4258 162.438 80.6288 162.777 80.9539 162.951C81.2791 163.125 81.6736 163.106 81.9805 162.902L81.4258 162.07ZM100.216 149.543L100.771 150.375C101.058 150.183 101.226 149.857 101.216 149.513C101.206 149.168 101.018 148.853 100.72 148.679L100.216 149.543ZM80.4258 138.581V162.07H82.4258V138.581H80.4258ZM81.9805 162.902L100.771 150.375L99.6618 148.71L80.8711 161.238L81.9805 162.902ZM100.72 148.679L81.9297 137.718L80.9219 139.445L99.7126 150.406L100.72 148.679Z" fill="#222222"/>
<path d="M126.054 51.6743L81.4258 138.581L100.216 149.543L144.061 61.0697L126.054 51.6743Z" fill="#009290" stroke="#222222" stroke-width="2" stroke-linejoin="round"/>
<path d="M130.751 42.2791L126.054 51.6744L144.061 61.0697L148.759 51.6744L130.751 42.2791Z" fill="#F39E28"/>
<path d="M126.054 51.6744L125.159 51.2272L124.72 52.1063L125.591 52.561L126.054 51.6744ZM130.751 42.2791L131.214 41.3925C130.976 41.2684 130.699 41.2451 130.443 41.3277C130.188 41.4103 129.977 41.5919 129.857 41.8318L130.751 42.2791ZM148.759 51.6744L149.654 52.1216C149.898 51.6336 149.705 51.0402 149.222 50.7878L148.759 51.6744ZM144.061 61.0697L143.599 61.9563L144.501 62.4269L144.956 61.517L144.061 61.0697ZM126.948 52.1216L131.646 42.7263L129.857 41.8318L125.159 51.2272L126.948 52.1216ZM130.289 43.1656L148.297 52.561L149.222 50.7878L131.214 41.3925L130.289 43.1656ZM147.865 51.2272L143.167 60.6225L144.956 61.517L149.654 52.1216L147.865 51.2272ZM125.591 52.561L143.599 61.9563L144.524 60.1832L126.516 50.7878L125.591 52.561Z" fill="#222222"/>
<path d="M90.821 144.062L134.666 57.155" stroke="#222222" stroke-width="2"/>
<path d="M81.4258 152.674L89.2552 157.372" stroke="#222222" stroke-width="2"/>
<rect x="131" y="123" width="36" height="37" rx="18" fill="#F59D27"/>
<rect x="78" y="58" width="13" height="12" rx="6" fill="#009290"/>
<rect x="52" y="69" width="23" height="23" rx="11.5" fill="#F59D27"/>
</svg>
