<svg width="219" height="50" viewBox="0 0 219 50" fill="none" xmlns="http://www.w3.org/2000/svg">
<circle cx="18.5" cy="31.5" r="18.5" fill="#FF98A9" fill-opacity="0.9"/>
<rect opacity="0.9" x="19" width="36" height="36" rx="6" fill="#19E4E2" fill-opacity="0.9"/>
<path d="M88.1599 29.312V30.896C88.1599 34.16 85.5679 35.024 83.3119 35.024C81.0559 35.024 78.4159 34.16 78.4159 30.896V19.184C78.4159 15.92 81.0559 15.056 83.3119 15.056C85.5679 15.056 88.1599 15.92 88.1599 19.184V20.768L96.6559 19.808V18.848C96.6559 10.16 89.5999 8 83.3119 8C77.0239 8 69.9199 10.16 69.9199 18.848V31.232C69.9199 39.92 77.0239 42.08 83.3119 42.08C89.5999 42.08 96.6559 39.92 96.6559 31.232V30.272L88.1599 29.312Z" fill="#071346"/>
<path d="M110.537 42.08C105.689 42.08 99.5449 40.4 99.5449 33.152V26.528C99.5449 19.28 105.689 17.6 110.537 17.6C115.385 17.6 121.481 19.28 121.481 26.528V33.152C121.481 40.4 115.385 42.08 110.537 42.08ZM110.537 35.984C112.313 35.984 112.985 35.12 112.985 33.296V26.384C112.985 24.56 112.313 23.696 110.537 23.696C108.761 23.696 108.041 24.56 108.041 26.384V33.296C108.041 35.12 108.761 35.984 110.537 35.984Z" fill="#071346"/>
<path d="M133.353 34.784V8.24H124.857V41.84H129.369H144.681V34.784H133.353Z" fill="#071346"/>
<path d="M158.573 17.6C153.725 17.6 147.581 19.28 147.581 26.528V33.152C147.581 40.4 153.725 42.08 158.573 42.08C163.421 42.08 169.517 40.16 169.517 33.632L161.021 32.672V33.296C161.021 35.12 160.349 35.984 158.573 35.984C156.797 35.984 156.077 35.12 156.077 33.296V31.184H169.517V26.528C169.517 19.28 163.421 17.6 158.573 17.6ZM156.077 26.768V26.384C156.077 24.56 156.797 23.696 158.573 23.696C160.349 23.696 161.021 24.56 161.021 26.384V26.768H156.077Z" fill="#071346"/>
<path d="M187.856 17.6C184.64 17.6 182.288 19.52 180.896 21.392L179.936 17.84H172.4V41.84H180.896V26.384C180.896 24.56 181.568 23.696 183.344 23.696C185.12 23.696 185.792 24.56 185.792 26.384V41.84H194.288V25.232C194.288 21.008 192.752 17.6 187.856 17.6Z" fill="#071346"/>
<path d="M196.201 34.736C196.201 40.4 202.681 42.08 207.529 42.08C212.377 42.08 218.089 40.4 218.089 34.592C218.089 30.272 214.969 28.688 211.561 27.872C208.153 27.056 205.177 26.912 205.177 25.136C205.177 24.08 205.849 23.696 207.145 23.696C208.873 23.696 209.113 24.56 209.113 25.904L217.609 24.944C217.609 19.28 211.993 17.6 207.145 17.6C202.297 17.6 196.681 19.28 196.681 25.088C196.681 29.312 199.273 30.992 202.777 31.808C206.089 32.576 209.593 32.672 209.593 34.544C209.593 35.6 208.921 35.984 207.529 35.984C205.369 35.984 204.697 35.12 204.697 33.776L196.201 34.736Z" fill="#071346"/>
</svg>
